<svg width="215" height="104" viewBox="0 0 215 104" fill="none" xmlns="http://www.w3.org/2000/svg">
<path d="M212.657 19.451C212.657 21.5098 210.402 22.9804 209.471 24.6471C208.49 26.3627 208.294 29.0588 206.578 30.0392C204.912 31.0196 202.51 29.8431 200.451 29.8431C198.392 29.8431 195.99 30.9706 194.324 30.0392C192.608 29.0588 192.412 26.3627 191.431 24.6471C190.451 22.9804 188.245 21.5098 188.245 19.451C188.245 17.3922 190.5 15.9216 191.431 14.2549C192.412 12.5392 192.608 9.89216 194.324 8.86275C195.99 7.88236 198.392 9.05883 200.451 9.05883C202.51 9.05883 204.912 7.93137 206.578 8.86275C208.294 9.84314 208.49 12.5392 209.471 14.2549C210.451 15.9216 212.657 17.3922 212.657 19.451Z" fill="black"/>
<path d="M5.952 84V14.496H21.696V84H5.952ZM47.7203 85.152C45.6083 85.152 43.5283 84.928 41.4803 84.48C39.4963 84.096 37.6723 83.392 36.0083 82.368C34.4083 81.28 33.1283 79.808 32.1683 77.952C31.2083 76.096 30.7283 73.76 30.7283 70.944C30.7283 67.296 31.4963 64.32 33.0323 62.016C34.5683 59.712 36.7763 57.92 39.6562 56.64C42.6003 55.296 46.1203 54.368 50.2163 53.856C54.3763 53.344 59.0163 53.088 64.1363 53.088V49.92C64.1363 48.448 63.8483 47.232 63.2723 46.272C62.6963 45.248 61.8323 44.48 60.6803 43.968C59.5923 43.392 58.1203 43.104 56.2643 43.104C54.6003 43.104 53.1283 43.296 51.8483 43.68C50.6323 44.064 49.7043 44.64 49.0643 45.408C48.4243 46.112 48.1043 46.976 48.1043 48V48.864H32.7443C32.6803 48.544 32.6483 48.288 32.6483 48.096C32.6483 47.84 32.6483 47.52 32.6483 47.136C32.6483 44.128 33.5763 41.504 35.4323 39.264C37.3523 37.024 40.0723 35.296 43.5923 34.08C47.1123 32.864 51.3683 32.256 56.3603 32.256C61.0323 32.256 65.0963 32.832 68.5523 33.984C72.0723 35.136 74.8243 36.896 76.8083 39.264C78.8563 41.632 79.8803 44.736 79.8803 48.576V70.176C79.8803 71.264 80.1683 72.128 80.7443 72.768C81.3843 73.408 82.1523 73.728 83.0483 73.728H86.3123V83.424C85.6083 83.744 84.4883 84.096 82.9523 84.48C81.4803 84.928 79.6883 85.152 77.5763 85.152C75.4003 85.152 73.4803 84.864 71.8163 84.288C70.2163 83.776 68.8723 83.04 67.7843 82.08C66.7603 81.056 66.0563 79.872 65.6723 78.528H65.0003C63.7843 79.808 62.3443 80.96 60.6803 81.984C59.0803 83.008 57.1923 83.776 55.0163 84.288C52.9043 84.864 50.4723 85.152 47.7203 85.152ZM53.5763 74.304C55.1123 74.304 56.5203 74.08 57.8003 73.632C59.0803 73.184 60.1683 72.576 61.0643 71.808C62.0243 70.976 62.7603 69.984 63.2723 68.832C63.8483 67.68 64.1363 66.432 64.1363 65.088V61.728C60.4883 61.728 57.3523 61.984 54.7283 62.496C52.1043 63.008 50.0883 63.808 48.6803 64.896C47.2723 65.984 46.5683 67.36 46.5683 69.024C46.5683 70.24 46.8563 71.264 47.4323 72.096C48.0723 72.864 48.9043 73.44 49.9283 73.824C50.9523 74.144 52.1683 74.304 53.5763 74.304ZM92.7645 84V33.408H105.725L106.877 41.184H107.549C108.317 39.456 109.245 37.92 110.333 36.576C111.485 35.168 112.861 34.08 114.461 33.312C116.125 32.544 117.949 32.16 119.933 32.16C121.085 32.16 122.141 32.288 123.101 32.544C124.061 32.736 124.765 32.96 125.213 33.216V46.944H120.221C118.237 46.944 116.477 47.232 114.941 47.808C113.469 48.32 112.253 49.152 111.293 50.304C110.333 51.392 109.629 52.736 109.181 54.336C108.733 55.936 108.509 57.792 108.509 59.904V84H92.7645ZM162.29 85.152C159.026 85.152 156.018 84.48 153.266 83.136C150.514 81.792 148.306 79.744 146.642 76.992H145.97L144.818 84H131.954V14.496H147.698V38.592H148.274C149.298 37.248 150.514 36.096 151.922 35.136C153.394 34.176 155.026 33.472 156.818 33.024C158.61 32.512 160.53 32.256 162.578 32.256C166.738 32.256 170.354 33.216 173.426 35.136C176.498 37.056 178.866 39.968 180.53 43.872C182.194 47.712 183.026 52.608 183.026 58.56C183.026 64.64 182.194 69.632 180.53 73.536C178.866 77.44 176.466 80.352 173.33 82.272C170.258 84.192 166.578 85.152 162.29 85.152ZM157.394 72.864C159.762 72.864 161.65 72.416 163.058 71.52C164.53 70.56 165.586 69.152 166.226 67.296C166.866 65.44 167.186 63.168 167.186 60.48V57.12C167.186 54.368 166.866 52.064 166.226 50.208C165.586 48.352 164.53 46.944 163.058 45.984C161.65 45.024 159.762 44.544 157.394 44.544C155.666 44.544 154.162 44.864 152.882 45.504C151.666 46.144 150.642 47.04 149.81 48.192C149.042 49.344 148.466 50.72 148.082 52.32C147.762 53.92 147.602 55.68 147.602 57.6V59.904C147.602 62.528 147.922 64.832 148.562 66.816C149.266 68.736 150.322 70.24 151.73 71.328C153.202 72.352 155.09 72.864 157.394 72.864ZM192.608 26.592V14.496H208.352V26.592H192.608ZM192.608 84V33.408H208.352V84H192.608Z" fill="black"/>
</svg>
