<svg width="200" height="200" viewBox="0 0 200 200" fill="none" xmlns="http://www.w3.org/2000/svg">
<path d="M197.255 99.6078C197.255 116.078 179.216 127.843 171.765 141.176C163.922 154.902 162.353 176.471 148.627 184.314C135.294 192.157 116.078 182.745 99.6078 182.745C83.1373 182.745 63.9216 191.765 50.5882 184.314C36.8627 176.471 35.2941 154.902 27.451 141.176C19.6078 127.843 1.96078 116.078 1.96078 99.6078C1.96078 83.1373 20 71.3726 27.451 58.0392C35.2941 44.3137 36.8627 23.1373 50.5882 14.902C63.9216 7.05882 83.1373 16.4706 99.6078 16.4706C116.078 16.4706 135.294 7.45098 148.627 14.902C162.353 22.7451 163.922 44.3137 171.765 58.0392C179.608 71.3726 197.255 83.1373 197.255 99.6078Z" fill="#0011FF"/>
<path d="M44.296 132V66.144H58.6V119.808H91.816V132H44.296ZM101.015 132V66.144H138.647C142.103 66.144 145.207 66.816 147.959 68.16C150.775 69.504 152.983 71.392 154.583 73.824C156.183 76.256 156.983 79.104 156.983 82.368C156.983 84.992 156.503 87.328 155.543 89.376C154.583 91.424 153.271 93.12 151.607 94.464C150.007 95.808 148.183 96.8 146.135 97.44V97.824C148.567 98.336 150.711 99.296 152.567 100.704C154.487 102.112 155.991 103.936 157.079 106.176C158.231 108.352 158.807 110.944 158.807 113.952C158.807 117.92 157.879 121.248 156.023 123.936C154.231 126.624 151.831 128.64 148.823 129.984C145.815 131.328 142.455 132 138.743 132H101.015ZM115.319 120.288H135.959C138.327 120.288 140.247 119.616 141.719 118.272C143.255 116.928 144.023 114.848 144.023 112.032C144.023 110.368 143.703 108.928 143.063 107.712C142.423 106.496 141.463 105.568 140.183 104.928C138.903 104.224 137.271 103.872 135.287 103.872H115.319V120.288ZM115.319 92.736H134.327C136.055 92.736 137.495 92.416 138.647 91.776C139.863 91.072 140.759 90.176 141.335 89.088C141.975 87.936 142.295 86.624 142.295 85.152C142.295 82.656 141.591 80.768 140.183 79.488C138.839 78.208 137.047 77.568 134.807 77.568H115.319V92.736Z" fill="white"/>
</svg>
